Coordinates
version=1
nRows=22
nColumns=24
inDegrees=yes

Units are S.I. units (second, meters, Newtons, ...)
Angles are in degrees.

endheader
time	pelvis_tilt	pelvis_list	pelvis_rotation	pelvis_tx	pelvis_ty	pelvis_tz	hip_flexion_r	hip_adduction_r	hip_rotation_r	knee_angle_r	ankle_angle_r	subtalar_angle_r	mtp_angle_r	hip_flexion_l	hip_adduction_l	hip_rotation_l	knee_angle_l	ankle_angle_l	subtalar_angle_l	mtp_angle_l	lumbar_extension	lumbar_bending	lumbar_rotation
      0.87433333	      0.00585775	     -1.63282624	      3.99736128	     -0.38720243	      0.91076946	      0.30793986	     10.22788762	      9.07798276	     -2.56764334	    -21.29116252	     11.50714514	     -3.34409218	      8.14246948	     16.87029768	     -6.24424255	     -5.22186149	    -59.66508797	      9.67181837	     -3.89759378	      0.83880837	     -4.46196483	      4.18336824	     -0.07146134
      0.87850000	      0.08113118	     -1.51708546	      3.66856594	     -0.38230134	      0.91178333	      0.30852710	      9.52137820	      9.02672496	     -2.30775947	    -20.76401341	     11.54020627	     -3.17371014	      8.15293585	     17.22638774	     -6.12642952	     -5.49521588	    -58.76601788	      9.71042783	     -4.35622559	      0.77360362	     -4.58739284	      4.07734729	      0.31083150
      0.88266667	      0.12124271	     -1.42052094	      3.31514053	     -0.37742826	      0.91265623	      0.30918179	      8.86707759	      8.99432787	     -2.02059716	    -20.25439951	     11.55019742	     -2.97178939	      8.17166685	     17.62072180	     -6.05358333	     -5.81204877	    -57.86863114	      9.75922774	     -4.78931085	      0.68357597	     -4.68157755	      3.95196750	      0.66414591
      0.88683333	      0.16601333	     -1.32233010	      2.94806031	     -0.37256737	      0.91348744	      0.30984332	      8.21638919	      8.95334755	     -1.72878174	    -19.76078057	     11.56389114	     -2.77464102	      8.19579268	     17.99223137	     -5.98535832	     -6.14730392	    -56.93517851	      9.77542205	     -5.22965714	      0.58128140	     -4.77367503	      3.84402115	      0.98390770
      0.89100000	      0.21417898	     -1.22900225	      2.56836389	     -0.36772400	      0.91426771	      0.31052513	      7.56959748	      8.91209039	     -1.42901621	    -19.27641294	     11.57901532	     -2.57555282	      8.22469608	     18.34700137	     -5.93207097	     -6.49867931	    -55.97418035	      9.76237803	     -5.67115679	      0.47004470	     -4.87296887	      3.73655112	      1.30597862
      0.89516667	      0.25616209	     -1.14072154	      2.16698088	     -0.36288152	      0.91497941	      0.31122930	      6.94335304	      8.86940972	     -1.11508148	    -18.82132881	     11.58775100	     -2.37385935	      8.25183001	     18.69120439	     -5.89912259	     -6.88522561	    -54.98537063	      9.72573195	     -6.09217454	      0.37144495	     -4.95758840	      3.65507554	      1.58916067
      0.89933333	      0.30638555	     -1.05342831	      1.77079334	     -0.35806081	      0.91565386	      0.31193237	      6.30893405	      8.82125921	     -0.80870086	    -18.35937079	     11.60649418	     -2.17760532	      8.28453697	     19.01714940	     -5.86491346	     -7.25619965	    -53.97121231	      9.65883006	     -6.51801833	      0.26102734	     -5.05958475	      3.54997293	      1.92746603
      0.90350000	      0.35106859	     -0.97377402	      1.36705472	     -0.35325892	      0.91626156	      0.31264485	      5.68898460	      8.77437694	     -0.49304792	    -17.91009025	     11.62592376	     -1.97608019	      8.31938843	     19.34048077	     -5.84798896	     -7.64323334	    -52.93911890	      9.57489005	     -6.91060539	      0.15035194	     -5.15233387	      3.45622550	      2.25507200
      0.90766667	      0.40293047	     -0.89902797	      0.98151172	     -0.34844612	      0.91682862	      0.31332875	      5.05401822	      8.72394109	     -0.19729474	    -17.44237277	     11.66441101	     -1.78007520	      8.37874905	     19.64594248	     -5.82457332	     -7.99082384	    -51.88549442	      9.48284874	     -7.29661350	     -0.02380363	     -5.25729856	      3.33951975	      2.70632697
      0.91183333	      0.44597363	     -0.82985614	      0.57165568	     -0.34365468	      0.91732203	      0.31404446	      4.44996180	      8.67365283	      0.11374019	    -17.01692044	     11.70200620	     -1.58187355	      8.43412924	     19.94718775	     -5.82784235	     -8.38667319	    -50.81415306	      9.36094885	     -7.63480476	     -0.17737844	     -5.34515616	      3.24908612	      3.03664785
      0.91600000	      0.48119687	     -0.77791616	      0.16126709	     -0.33888616	      0.91774990	      0.31474030	      3.86177560	      8.63157859	      0.41998073	    -16.59720964	     11.70259434	     -1.35361551	      8.52644370	     20.24965689	     -5.84585925	     -8.76521218	    -49.73047259	      9.24471077	     -7.93947563	     -0.41635723	     -5.43391261	      3.19004428	      3.46429785
      0.92016667	      0.52345219	     -0.72634690	     -0.24548859	     -0.33410794	      0.91813383	      0.31542802	      3.27212175	      8.58243686	      0.71478209	    -16.19331767	     11.74396247	     -1.14133395	      8.61898615	     20.53139326	     -5.86833054	     -9.15070964	    -48.62663019	      9.09919451	     -8.20666562	     -0.63960796	     -5.51883893	      3.12256113	      3.80214607
      0.92433333	      0.56728557	     -0.67697998	     -0.64314895	     -0.32932578	      0.91846481	      0.31610680	      2.68439644	      8.52907665	      1.00052582	    -15.79818610	     11.82162760	     -0.95246849	      8.68566295	     20.80228061	     -5.89493455	     -9.53457720	    -47.50979893	      8.94105466	     -8.42523292	     -0.79093496	     -5.59651791	      3.04262451	      4.09237546
      0.92850000	      0.59302864	     -0.64642014	     -1.06210746	     -0.32457740	      0.91871756	      0.31678587	      2.14022827	      8.48639662	      1.29312950	    -15.44615407	     11.84835183	     -0.72991511	      8.73391872	     21.08208571	     -5.95180970	     -9.94115289	    -46.38400675	      8.76012963	     -8.58650050	     -0.89456187	     -5.66519484	      3.01521056	      4.34480813
      0.93266667	      0.63518529	     -0.61754068	     -1.45178060	     -0.31979719	      0.91895096	      0.31741701	      1.56411680	      8.43622111	      1.55673867	    -15.06651821	     11.90376478	     -0.50334978	      8.79039181	     21.33393190	     -5.99371268	    -10.30091271	    -45.24060040	      8.59244492	     -8.72523624	     -1.00320411	     -5.74765418	      2.96867819	      4.68046950
      0.93683333	      0.66729828	     -0.60235035	     -1.83547531	     -0.31502676	      0.91911582	      0.31802166	      1.00781666	      8.39277743	      1.80997539	    -14.70344167	     11.96567787	     -0.26616861	      8.85070128	     21.59147332	     -6.04848773	    -10.65040481	    -44.09415796	      8.42752138	     -8.80897840	     -1.10760085	     -5.81613950	      2.94002579	      5.01109071
      0.94100000	      0.69612153	     -0.59757002	     -2.21327402	     -0.31025021	      0.91922324	      0.31860058	      0.46208015	      8.35303811	      2.05234209	    -14.35724199	     12.03201756	     -0.02316687	      8.91074117	     21.84375090	     -6.11065565	    -10.98460093	    -42.94162632	      8.26490252	     -8.84146243	     -1.19990166	     -5.87769683	      2.92471700	      5.31918823
      0.94516667	      0.72512602	     -0.59858429	     -2.57736219	     -0.30547134	      0.91928624	      0.31914602	     -0.08153437	      8.31184166	      2.27599886	    -14.01412994	     12.11144165	      0.22378885	      8.97726912	     22.08733113	     -6.17174311	    -11.29992457	    -41.77960808	      8.11213540	     -8.82573459	     -1.28917375	     -5.94150441	      2.91787297	      5.63953760
      0.94933333	      0.75165686	     -0.60975804	     -2.93418618	     -0.30069067	      0.91929823	      0.31965958	     -0.61594625	      8.27361629	      2.48726706	    -13.68576979	     12.19653681	      0.48117989	      9.04593564	     22.32531489	     -6.23863124	    -11.59847980	    -40.61244716	      7.96523228	     -8.75724899	     -1.36802029	     -6.00058565	      2.92192292	      5.94071753
      0.95350000	      0.78151194	     -0.63013267	     -3.26839475	     -0.29588641	      0.91926559	      0.32012456	     -1.16010324	      8.23846871	      2.68013976	    -13.34976638	     12.31175392	      0.75771062	      9.14243792	     22.55473590	     -6.30117599	    -11.85487498	    -39.44632576	      7.85372924	     -8.64604185	     -1.45848801	     -6.06225969	      2.93354432	      6.29410276
      0.95766667	      0.78812745	     -0.65492127	     -3.61866808	     -0.29110526	      0.91915996	      0.32058817	     -1.65083266	      8.20229209	      2.87563005	    -13.06958667	     12.38780850	      1.01285653	      9.20678884	     22.79530652	     -6.37725942	    -12.13304305	    -38.26674492	      7.69966719	     -8.48769102	     -1.50851640	     -6.09608882	      2.96263652	      6.50510031
      0.96183333	      0.81007162	     -0.68510247	     -3.94684207	     -0.28629819	      0.91903688	      0.32100503	     -2.16757103	      8.16491696	      3.05304969	    -12.77384176	     12.49428909	      1.28666685	      9.27347169	     23.01020013	     -6.44392487	    -12.37182950	    -37.08093759	      7.58451960	     -8.28272171	     -1.54518549	     -6.14593493	      2.99112792	      6.76265771
